<svg xmlns="http://www.w3.org/2000/svg" viewBox="0 0 338.66 338.66"><defs><style>.cls-1{fill:#b23680;}.cls-2{opacity:0.25;}.cls-3{fill:#f27421;}.cls-4{fill:#e03e8f;}.cls-5{fill:#929799;}</style></defs><title>profilemovil</title><g id="Capa_2" data-name="Capa 2"><g id="Capa_1-2" data-name="Capa 1"><path class="cls-1" d="M338.66,169.33a168.72,168.72,0,0,1-17,74c-.4.82-.8,1.64-1.23,2.45s-.93,1.8-1.4,2.7c0,.1-.1.2-.16.3-.37.7-.74,1.39-1.13,2.08-.19.37-.4.75-.61,1.12L316,254c-.14.25-.28.49-.43.73-.43.75-.87,1.5-1.33,2.23-.09.17-.19.33-.29.49-.47.76-.93,1.51-1.41,2.26-.16.27-.34.55-.52.82l-1.18,1.82c-1.25,1.89-2.52,3.75-3.84,5.58a169.08,169.08,0,0,1-137.65,70.7,172.19,172.19,0,0,1-20.29-1.2l-.9-.11A169.47,169.47,0,1,1,338.65,167.62C338.66,168.19,338.66,168.76,338.66,169.33Z"/><path class="cls-2" d="M338.66,169.33a168.72,168.72,0,0,1-17,74c-.4.82-.8,1.64-1.23,2.45s-.93,1.8-1.4,2.7c0,.1-.1.2-.16.3-.37.7-.74,1.39-1.13,2.08-.19.37-.4.75-.61,1.12L316,254c-.14.25-.28.49-.43.73-.43.75-.87,1.5-1.33,2.23-.09.17-.19.33-.29.49-.47.76-.93,1.51-1.41,2.26-.16.27-.34.55-.52.82l-1.18,1.82c-1.25,1.89-2.52,3.75-3.84,5.58a169.08,169.08,0,0,1-137.65,70.7,172.19,172.19,0,0,1-20.29-1.2l-.9-.11a168.94,168.94,0,0,1-24.48-4.92L53.81,262.58l.7-.22-8.45-8.45L108.79,56.08l59.84,59.84,25.56-35.33,9.65,9.65,35-.91,3.67,48.33-4.39-.48v24.88C242,149.27,246,136.25,246,136c0-.5,1.83-45.67,1.83-45.67l40.77-5.67,45.5,45.5a169.34,169.34,0,0,1,4.55,37.46C338.66,168.19,338.66,168.76,338.66,169.33Z"/><polygon class="cls-3" points="234.44 208.56 188.11 262.58 53.81 262.58 102.05 208.56 234.44 208.56"/><polygon class="cls-4" points="288.6 190.91 232.44 262.58 188.11 262.58 234.44 208.56 102.04 208.56 117.72 190.91 288.6 190.91"/><polygon class="cls-4" points="46.06 100.85 46.06 127.08 95.47 92.34 95.47 197.8 108.79 182.68 108.79 56.08 46.06 100.85"/><polygon class="cls-3" points="46.06 127.08 46.06 253.91 95.47 197.72 95.47 92.34 46.06 127.08"/><path class="cls-5" d="M237.64,91.87H208.56c-9.86,0-9.86-13.29,0-13.29H282c8.9,0,8.79,13.29,0,13.29h-30.4V174c0,10.12-13.93,10-13.93,0Z"/><path class="cls-5" d="M127.52,181.6a6.86,6.86,0,0,1-6.9-6.89V85.48a6.86,6.86,0,0,1,6.9-6.9,6.6,6.6,0,0,1,4.81,2,6.67,6.67,0,0,1,2,4.89v45.26l50.15-50.15a6.69,6.69,0,0,1,4.89-2,6.91,6.91,0,0,1,4.81,11.78l-39.73,39.73,39.73,39.81a6.54,6.54,0,0,1,2,4.81,6.63,6.63,0,0,1-2,4.88,6.54,6.54,0,0,1-4.81,2,6.62,6.62,0,0,1-4.89-2l-26.08-26.08-26.08,26.08A6.52,6.52,0,0,1,127.52,181.6Zm21.19-37.79-4-4-10.42,10.42v8Z"/></g></g></svg>